HIERARCHY
ROOT hip
{
	OFFSET 0.000000 0.000000 0.000000 
	CHANNELS 6 Xposition Yposition Zposition Xrotation Zrotation Yrotation
	JOINT abdomen
	{
		OFFSET 0.000000 3.402643 0.000000 
		CHANNELS 3 Xrotation Zrotation Yrotation
		JOINT chest
		{
			OFFSET 0.000000 8.438565 -0.680529 
			CHANNELS 3 Xrotation Zrotation Yrotation
			JOINT neck
			{
				OFFSET 0.000000 10.207942 -0.272212 
				CHANNELS 3 Xrotation Zrotation Yrotation
				JOINT head
				{
					OFFSET 0.000000 3.130431 0.000000 
					CHANNELS 3 Xrotation Zrotation Yrotation
					End Site
					{
						OFFSET 0.000000 3.130435 0.000000 
					}
				}
			}
			JOINT lCollar
			{
				OFFSET 3.470700 6.669187 -0.816635 
				CHANNELS 3 Yrotation Zrotation Xrotation
				JOINT lShldr
				{
					OFFSET 3.198488 0.000000 0.000000 
					CHANNELS 3 Zrotation Yrotation Xrotation
					JOINT lForeArm
					{
						OFFSET 10.139888 0.000000 0.000000 
						CHANNELS 3 Yrotation Zrotation Xrotation
						JOINT lHand
						{
							OFFSET 8.370511 0.000000 0.000000 
							CHANNELS 3 Zrotation Yrotation Xrotation
							End Site
							{
								OFFSET 4.083176 0.000000 0.000000 
							}
						}
					}
				}
			}
			JOINT rCollar
			{
				OFFSET -3.470700 6.669187 -0.816635 
				CHANNELS 3 Yrotation Zrotation Xrotation
				JOINT rShldr
				{
					OFFSET -3.198488 0.000000 0.000000 
					CHANNELS 3 Zrotation Yrotation Xrotation
					JOINT rForeArm
					{
						OFFSET -10.139888 0.000000 0.000000 
						CHANNELS 3 Yrotation Zrotation Xrotation
						JOINT rHand
						{
							OFFSET -8.370511 0.000000 0.000000 
							CHANNELS 3 Zrotation Yrotation Xrotation
							End Site
							{
								OFFSET -4.083176 0.000000 0.000000 
							}
						}
					}
				}
			}
		}
	}
	JOINT lThigh
	{
		OFFSET 5.308129 -1.633274 1.361059 
		CHANNELS 3 Xrotation Zrotation Yrotation
		JOINT lShin
		{
			OFFSET -2.041588 -20.007561 0.000000 
			CHANNELS 3 Xrotation Zrotation Yrotation
			JOINT lFoot
			{
				OFFSET 0.000000 -19.190928 -1.224953 
				CHANNELS 3 Xrotation Yrotation Zrotation
				End Site
				{
					OFFSET 0.000000 -2.449906 4.627600 
				}
			}
		}
	}
	JOINT rThigh
	{
		OFFSET -5.308129 -1.633274 1.361059 
		CHANNELS 3 Xrotation Zrotation Yrotation
		JOINT rShin
		{
			OFFSET 2.041588 -20.007561 0.000000 
			CHANNELS 3 Xrotation Zrotation Yrotation
			JOINT rFoot
			{
				OFFSET 0.000000 -19.190928 -1.224953 
				CHANNELS 3 Xrotation Yrotation Zrotation
				End Site
				{
					OFFSET 0.000000 -2.449906 4.627600 
				}
			}
		}
	}
}
MOTION
Frames: 9
Frame Time: 0.033333
4.280085 42.819149 40.107712 -3.349610 -7.207031 92.802734 23.710936 5.576171 -1.826172 -20.205078 0.605469 -3.818256 -8.339843 -1.318359 31.357197 16.162111 -12.421876 30.427584 4.775391 19.941406 0.953701 -103.505859 -59.287109 51.162106 -102.929688 -2.148437 -11.796509 10.449219 10.644531 1.591797 5.273437 4.824219 -0.283203 49.658203 27.617189 -70.620476 125.761719 3.300781 -91.142578 -13.945312 3.193359 -0.927190 -37.265579 31.259710 0.742373 60.548622 0.248651 -3.396452 1.401610 29.257204 -5.333331 -48.681885 -26.139076 7.686591 62.784943 -1.152238 3.515470 -6.952882 -21.451967 1.608995 
4.849622 41.817261 42.292152 -4.052734 -7.568360 94.394531 22.832031 6.728516 -2.576981 -20.908203 2.539063 -5.028864 -8.867188 -0.449219 31.249926 15.468751 -12.246094 30.359255 6.757812 20.224609 0.927734 -106.201172 -66.523438 61.387527 -105.029297 -2.001953 -10.068018 12.177734 11.562499 2.033207 4.921875 5.000000 -0.273438 49.150391 25.761719 -78.056641 127.539055 3.212891 -92.841797 -13.613280 4.218750 -1.073499 -37.968632 32.490154 -3.130723 59.309284 0.082787 -3.448304 -3.671981 30.485832 -2.745466 -43.488857 -30.378141 14.308641 50.340611 -0.339657 2.937423 3.355342 -18.470831 5.477475 
5.253654 40.313560 44.690117 -5.097657 -8.095703 96.298828 21.933594 7.148437 -3.369141 -21.611328 4.648437 -5.898438 -9.746095 0.605469 31.132814 14.248047 -12.246094 30.486212 8.066406 20.312500 0.982938 -103.242188 -72.988281 62.744141 -108.330078 -1.972656 -10.068361 14.433594 11.513671 2.597656 4.746094 5.175781 -0.273438 48.583984 24.794924 -82.222466 130.507813 3.291016 -91.054688 -14.042967 6.552734 -1.610214 -41.193707 35.600948 -8.222221 59.995533 0.082659 -3.655546 -5.201865 27.768738 -2.017974 -38.235077 -32.673065 19.389935 41.560551 0.208353 2.757557 9.040359 -8.072906 5.856921 
5.387882 38.432922 47.084267 -5.634766 -8.623188 97.899071 21.757813 7.363281 -3.496094 -22.148439 5.527344 -6.064453 -10.449220 0.576172 30.957029 12.861329 -11.718751 30.427704 7.646485 19.384766 0.914728 -86.591797 -77.607422 46.464840 -110.556641 -2.080078 -11.200817 14.228516 9.697266 2.031250 5.097656 5.527344 -0.332031 48.212891 24.697266 -84.302559 135.693359 3.408203 -89.443939 -15.253907 9.169923 -2.363281 -46.228470 38.045998 -14.080176 61.576370 0.530195 -3.680482 -7.128351 25.018314 -1.481604 -35.342915 -34.204933 17.588209 40.872997 0.393998 2.627046 -1.264588 -4.847668 4.699820 
5.230381 36.553261 49.068592 -5.283203 -8.623047 99.139168 23.027342 7.275390 -2.578125 -21.962893 4.472656 -5.185547 -11.513671 1.220703 30.351768 11.992188 -11.718750 29.863281 5.654297 19.443361 0.875655 -59.335938 -78.652344 16.718943 -111.923828 -2.167969 -11.738281 12.753906 6.923828 1.241412 5.791016 7.109375 -0.372302 47.021488 26.328121 -84.263245 141.669922 3.427734 -87.344337 -15.722656 12.460938 -3.281250 -51.356369 37.909817 -19.452616 64.572563 0.579116 -3.755934 -10.504556 26.054773 0.194659 -37.558701 -35.493317 15.997823 47.014542 -0.153569 2.866736 -13.136139 -4.758252 3.624201 
4.875974 35.103252 50.380676 -4.228463 -8.271383 100.184029 24.814455 7.099609 -1.346449 -21.435547 2.187500 -4.150018 -12.949219 2.861328 29.277346 11.816405 -11.718749 28.974611 3.457031 20.400389 0.908203 -42.587891 -75.898438 -5.175486 -112.236328 -2.158203 -12.519163 10.507813 4.794922 0.664063 6.855469 9.394530 -0.626594 45.097656 29.228514 -81.425789 145.703125 3.496094 -82.861923 -15.224609 14.873048 -3.623047 -54.985023 36.492771 -21.233961 68.071327 1.027646 -3.644353 -13.755077 27.840866 1.790517 -42.736671 -36.159042 17.523809 55.763668 -1.013692 3.496950 -16.962360 -4.520947 3.857275 
4.495708 34.199753 50.993561 -2.822265 -7.910156 101.248657 26.406248 6.679688 -0.556641 -20.732422 0.957031 -3.281087 -13.662109 3.300781 28.516186 11.640625 -11.191407 28.261719 2.460938 20.712891 0.869141 -36.445313 -72.421875 -15.146027 -111.689453 -2.236328 -13.066025 9.023438 2.070312 0.224609 7.695313 10.302734 -0.519325 43.574215 33.056641 -76.083984 147.011719 3.603516 -78.145142 -14.794922 15.751953 -3.808594 -57.089809 35.964458 -21.433779 69.284508 1.032150 -3.865113 -13.635069 26.121706 1.595343 -46.827003 -37.594543 19.795309 61.209511 -1.229313 3.239731 -17.168577 -4.149955 3.449685 
4.172705 33.749416 51.038013 -1.416016 -7.734374 102.820953 27.285158 6.240234 -0.321204 -20.380859 0.605469 -2.763569 -14.374999 3.066406 28.008337 11.640626 -10.488282 27.732594 2.353515 19.833984 0.810547 -34.365234 -68.144531 -18.055939 -113.740234 -2.167969 -13.457031 9.550780 1.718750 0.195313 8.056640 10.468750 -0.605469 43.076168 36.484375 -71.962883 146.855469 3.642578 -77.412727 -13.945313 14.990806 -3.396183 -58.882690 35.799805 -20.836697 69.828278 1.359348 -3.658774 -10.878578 21.448809 -0.911034 -48.075176 -39.185898 21.589569 63.308517 -1.419232 3.377369 -17.147339 -5.382648 3.145316 
3.924818 33.643143 50.595448 -0.351563 -7.568360 105.087891 27.285158 6.240234 -0.321204 -20.205078 0.078125 -2.763658 -15.439453 3.349610 27.451742 12.343750 -9.960938 27.244404 2.480469 19.492189 0.934241 -34.726559 -62.509769 -16.746946 -118.857422 -2.314453 -14.599609 11.523438 3.583984 0.430298 8.056641 10.820313 -0.656130 43.554684 39.306641 -69.072266 146.230469 3.613281 -75.391235 -13.388673 13.193360 -2.832031 -60.263901 36.540432 -18.866022 68.774323 0.929897 -3.747156 -6.711660 14.725507 -3.202441 -46.518768 -40.935841 22.358080 63.144875 -1.248511 3.472036 -16.361736 -8.215270 2.401058 
